<?xml version="1.0" encoding="utf-8"?>
<!-- Generator: Adobe Illustrator 24.3.0, SVG Export Plug-In . SVG Version: 6.00 Build 0)  -->
<svg version="1.1" id="Layer_1" xmlns="http://www.w3.org/2000/svg" xmlns:xlink="http://www.w3.org/1999/xlink" x="0px" y="0px"
	 viewBox="0 0 1280 769" style="enable-background:new 0 0 1280 769;" xml:space="preserve">
<style type="text/css">
	.st0{fill:#64690C;}
	.st1{fill:#F4CD76;}
	.st2{fill:none;stroke:#231F20;stroke-width:0.1;stroke-miterlimit:10;}
	.st3{fill:#ECECD9;}
	.st4{font-family:'Gotham-Medium';}
	.st5{font-size:38.1881px;}
	.st6{letter-spacing:19;}
</style>
<rect class="st0" width="1280" height="769"/>
<g>
	<path class="st0" d="M1765.4,299l-57,167l-0.1,0.2h-28.9L1622.4,299h29.1l55.2,161.8l32.7-96c0.1-0.3,0.2-0.7,0.3-1
		c8.3-25.5,7.6-64.8,7.6-64.8H1765.4z"/>
	<rect x="1777.1" y="338.7" class="st0" width="26.9" height="127.6"/>
	<rect x="1945.6" y="338.7" class="st0" width="26.9" height="127.6"/>
	<path class="st0" d="M2070,341.5c-5.7-1.7-11.7-2.6-18-2.6c-6.3,0-12.3,0.9-18,2.6c-7.1,2.1-13.7,5.4-19.6,9.7
		c-15.7,11.6-25.9,30.2-25.9,51.3c0,21,10.2,39.7,25.9,51.3c5.3,3.9,11.2,7,17.6,9.1c6.3,2.1,13,3.2,20,3.2c7,0,13.7-1.1,20-3.2
		c25.3-8.4,43.5-32.3,43.5-60.4C2115.6,373.6,2096.3,349.2,2070,341.5z M2052,462.9c-18,0-33.1-18.9-37.6-44.6
		c-0.9-5-1.3-10.3-1.3-15.7c0-5.4,0.5-10.7,1.3-15.7c4.5-25.7,19.6-44.6,37.6-44.6c21.5,0,38.9,27,38.9,60.4
		C2091,435.8,2073.5,462.9,2052,462.9z"/>
	<path class="st0" d="M2234.9,338.7c-12.6-6.4-30.1,0-30.1,0c-3.7,1.2-7.4,2.9-10.9,4.9c-18.4,10.7-29.9,28.5-34.4,36.7v-41.6h-26.9
		v127.6h26.9v-56.4c0-21.4,9.3-42,25.9-55.5c2.4-2,4.9-3.7,7.4-5.2c18.7-10.6,32.6-3.4,32.5,20.2v97h26.2V363
		C2250.3,350.5,2243.9,342.5,2234.9,338.7z"/>
	<path class="st1" d="M1989.7,342.4c-0.2,0.2-0.4,0.4-0.7,0.7c-25.4-23.3-34.7-23.3-60,0c-0.2-0.2-0.4-0.4-0.7-0.7
		c23.3-25.4,23.3-34.7,0-60c0.2-0.2,0.4-0.4,0.7-0.7c25.4,23.3,34.7,23.3,60,0c0.2,0.2,0.4,0.4,0.7,0.7
		C1966.4,307.8,1966.4,317.1,1989.7,342.4z"/>
	<path class="st0" d="M1928.8,424.5c-6.6-16.6-26.1-26.7-49.5-38.2c-23.3-11.5-41.6-19.4-37.2-31.7c1.7-4.7,7.5-8.5,16.4-10.2
		c3-0.6,6.3-0.8,9.9-0.8c12.2,0,28,3.4,45.9,12.3l11.6-10l1.9-1.6c-0.5-0.1-1.1-0.3-1.6-0.4c-0.1,0-0.1,0-0.2-0.1
		c-0.2,0-0.4-0.1-0.6-0.1c-0.5-0.1-0.9-0.2-1.4-0.3c-2-0.4-4-0.8-5.8-1.1c-0.2,0-0.5-0.1-0.7-0.1c-0.3-0.1-0.6-0.1-0.8-0.1
		c-0.5-0.1-1-0.2-1.6-0.3c-0.2,0-0.5-0.1-0.7-0.1c0,0,0,0,0,0c-0.7-0.1-1.4-0.2-2.1-0.3c-0.1,0-0.2,0-0.3,0
		c-0.4-0.1-0.7-0.1-1.1-0.2c-0.3,0-0.4-0.1-0.6-0.1c-0.1,0-0.2,0-0.3,0c-13.7-1.9-33.9-3.5-52.1-0.2c-1.5,0.3-2.9,0.5-4.3,0.9
		c-0.6,0.1-1.2,0.3-1.8,0.4c-32.3,8.1-43,31.5-10.8,50.1c32.2,18.7,77.5,35,71,54.8c-3,9.1-14.3,13.9-28.7,13.9
		c-16.8,0-37.8-6.4-55-19.8l-4.5,17.3c3.6,1.2,9.8,3,17.6,4.7c12.9,2.7,30.1,4.9,47.3,2.5c4.4-0.6,8.5-1.5,12.3-2.5
		C1925.9,455.7,1934.6,438.9,1928.8,424.5z"/>
	<path class="st2" d="M1914.3,341.5c-2.4-0.4-4-0.6-4.3-0.6c0,0,0,0,0,0"/>
	<path class="st1" d="M1984.8,320.5c0,0,132.9-66.7,274.9-17.3c142,49.4,80.6,165.9,41.1,187.7c0,0,71.8-91.7-23.8-152.5
		S2035.1,295.5,1984.8,320.5z"/>
	<path class="st1" d="M2345.6,475.4c2.4-3.6,4.8-7.4,6.9-11.4c9-16.3,19.1-42.1,16.5-72.1c-2-23.1-11.1-44-27.1-62
		c-17.4-19.5-42.7-35.2-75.4-46.5c-37-12.9-76.5-19.4-117.6-19.4c-65.2,0-119.8,16.4-149.6,27.6c33-14.8,135-54.1,250.6-34.9
		C2380.5,278.5,2452.6,377.9,2345.6,475.4z"/>
	<g>
		<text transform="matrix(1 0 0 1 1676.4401 517.4097)" class="st1 st4 st5 st6">SHIFT CATALYST</text>
	</g>
</g>
<g>
	<path class="st3" d="M428.3,299l-57,167l-0.1,0.2h-28.9L285.3,299h29.1l55.2,161.8l32.7-96c0.1-0.3,0.2-0.7,0.3-1
		c8.3-25.5,7.6-64.8,7.6-64.8H428.3z"/>
	<rect x="440" y="338.7" class="st3" width="26.9" height="127.6"/>
	<rect x="608.4" y="338.7" class="st3" width="26.9" height="127.6"/>
	<path class="st3" d="M732.9,341.5c-5.7-1.7-11.7-2.6-18-2.6s-12.3,0.9-18,2.6c-7.1,2.1-13.7,5.4-19.6,9.7
		c-15.7,11.6-25.9,30.2-25.9,51.3c0,21,10.2,39.7,25.9,51.3c5.3,3.9,11.2,7,17.6,9.1c6.3,2.1,13,3.2,20,3.2c7,0,13.7-1.1,20-3.2
		c25.3-8.4,43.5-32.3,43.5-60.4C778.4,373.6,759.2,349.2,732.9,341.5z M714.9,462.9c-18,0-33.1-18.9-37.6-44.6
		c-0.9-5-1.3-10.3-1.3-15.7c0-5.4,0.5-10.7,1.3-15.7c4.5-25.7,19.6-44.6,37.6-44.6c21.5,0,38.9,27,38.9,60.4
		C753.9,435.8,736.4,462.9,714.9,462.9z"/>
	<path class="st3" d="M897.8,338.7c-12.6-6.4-30.1,0-30.1,0c-3.7,1.2-7.4,2.9-10.9,4.9c-18.4,10.7-29.9,28.5-34.4,36.7v-41.6h-26.9
		v127.6h26.9v-56.4c0-21.4,9.3-42,25.9-55.5c2.4-2,4.9-3.7,7.4-5.2c18.7-10.6,32.6-3.4,32.5,20.2v97h26.2V363
		C913.2,350.5,906.7,342.5,897.8,338.7z"/>
	<path class="st1" d="M652.6,342.4c-0.2,0.2-0.4,0.4-0.7,0.7c-25.4-23.3-34.7-23.3-60,0c-0.2-0.2-0.4-0.4-0.7-0.7
		c23.3-25.4,23.3-34.7,0-60c0.2-0.2,0.4-0.4,0.7-0.7c25.4,23.3,34.7,23.3,60,0c0.2,0.2,0.4,0.4,0.7,0.7
		C629.2,307.8,629.2,317.1,652.6,342.4z"/>
	<path class="st3" d="M591.7,424.5c-6.6-16.6-26.1-26.7-49.5-38.2c-23.3-11.5-41.6-19.4-37.2-31.7c1.7-4.7,7.5-8.5,16.4-10.2
		c3-0.6,6.3-0.8,9.9-0.8c12.2,0,28,3.4,45.9,12.3l11.6-10l1.9-1.6c-0.5-0.1-1.1-0.3-1.6-0.4c-0.1,0-0.1,0-0.2-0.1
		c-0.2,0-0.4-0.1-0.6-0.1c-0.5-0.1-0.9-0.2-1.4-0.3c-2-0.4-4-0.8-5.8-1.1c-0.2,0-0.5-0.1-0.7-0.1c-0.3-0.1-0.6-0.1-0.8-0.1
		c-0.5-0.1-1-0.2-1.6-0.3c-0.2,0-0.5-0.1-0.7-0.1c0,0,0,0,0,0c-0.7-0.1-1.4-0.2-2.1-0.3c-0.1,0-0.2,0-0.3,0
		c-0.4-0.1-0.7-0.1-1.1-0.2c-0.3,0-0.4-0.1-0.6-0.1c-0.1,0-0.2,0-0.3,0c-13.7-1.9-33.9-3.5-52.1-0.2c-1.5,0.3-2.9,0.5-4.3,0.9
		c-0.6,0.1-1.2,0.3-1.8,0.4c-32.3,8.1-43,31.5-10.8,50.1c32.2,18.7,77.5,35,71,54.8c-3,9.1-14.3,13.9-28.7,13.9
		c-16.8,0-37.8-6.4-55-19.8l-4.5,17.3c3.6,1.2,9.8,3,17.6,4.7c12.9,2.7,30.1,4.9,47.3,2.5c4.4-0.6,8.5-1.5,12.3-2.5
		C588.8,455.7,597.5,438.9,591.7,424.5z"/>
	<path class="st2" d="M577.2,341.5c-2.4-0.4-4-0.6-4.3-0.6c0,0,0,0,0,0"/>
	<path class="st1" d="M647.7,320.5c0,0,132.9-66.7,274.9-17.3s80.6,165.9,41.1,187.7c0,0,71.8-91.7-23.8-152.5
		S698,295.5,647.7,320.5z"/>
	<path class="st1" d="M1008.5,475.4c2.4-3.6,4.8-7.4,6.9-11.4c9-16.3,19.1-42.1,16.5-72.1c-2-23.1-11.1-44-27.1-62
		c-17.4-19.5-42.7-35.2-75.4-46.5c-37-12.9-76.5-19.4-117.6-19.4c-65.2,0-119.8,16.4-149.6,27.6c33-14.8,135-54.1,250.6-34.9
		C1043.4,278.5,1115.5,377.9,1008.5,475.4z"/>
	<g>
		<text transform="matrix(1 0 0 1 339.3346 517.4097)" class="st1 st4 st5 st6">SHIFT CATALYST</text>
	</g>
</g>
</svg>
